<svg xmlns="http://www.w3.org/2000/svg" version="1.1" xmlns:xlink="http://www.w3.org/1999/xlink" xmlns:svgjs="http://svgjs.com/svgjs" width="2000" height="2000"><svg version="1.1" id="SvgjsSvg1000" xmlns="http://www.w3.org/2000/svg" xmlns:xlink="http://www.w3.org/1999/xlink" x="0px" y="0px" viewBox="0 0 2000 2000" style="enable-background:new 0 0 2000 2000;" xml:space="preserve">
<style type="text/css">
	.st0{fill:#8AC7DB;}
	.st1{fill:#FFFFFF;}
	.st2{fill:#69ADC4;}
	.st3{fill:#231F20;}
</style>
<rect class="st0" width="2000" height="2000"></rect>
<g>
	<path class="st1" d="M1695.9,1000c0,395.4-321.7,717.1-717.1,717.1c-234.4,0-442.9-113-573.8-287.5c-4.8-6.4-9.5-12.9-14.1-19.4
		c-81.4-116.3-129.2-257.8-129.2-410.2c0-395.4,321.7-717.1,717.1-717.1c232.9,0,440.3,111.6,571.3,284.2
		c9.3,12.3,18.2,24.8,26.7,37.7C1652.1,718.2,1695.9,854.1,1695.9,1000z"></path>
	<path class="st2" d="M830.2,1419.4c0,0,127.8-154.9,274.6-171.1c0,0,142.4-175.5,312.9-174.1c0,0-208.3,64.6-290.6,227.1
		C1127.1,1301.2,1041.5,1279.1,830.2,1419.4z"></path>
	<path class="st2" d="M1321.2,1309.2c0,0,37.6-63,89.7-77c0,0,41.7-71.2,103.3-80.2c0,0-71.6,34.8-92.4,98.1
		C1421.9,1250.1,1389.8,1246.9,1321.2,1309.2z"></path>
	<path class="st0" d="M1550.1,567.1c-336.9,124-554.9,439.8-554.9,439.8c-282.6,53.4-506.7,285.8-604.3,403.3
		c-81.4-116.3-129.2-257.8-129.2-410.2c0-395.4,321.7-717.1,717.1-717.1C1211.7,282.9,1419,394.5,1550.1,567.1z"></path>
	<g>
		<path class="st3" d="M611.8,467.7v9.7h-26v82.5h-11.9v-82.5h-26v-9.7H611.8z"></path>
		<path class="st3" d="M681.6,494.9c5.1,5.4,7.7,13.1,7.7,23.2v41.7h-11.9v-40.6c0-7.1-1.8-12.6-5.5-16.5c-3.7-3.8-8.6-5.8-14.9-5.8
			c-6.5,0-11.8,2.1-15.7,6.3c-3.9,4.2-5.9,10.4-5.9,18.5v38h-11.9v-96.7h11.9v42c1.8-5.8,5.1-10.3,9.7-13.5c4.7-3.1,10-4.7,16.1-4.7
			C669.7,486.9,676.5,489.6,681.6,494.9z"></path>
		<path class="st3" d="M773.1,526.5h-57.4c0.3,8.2,2.6,14.3,7,18.4c4.4,4.1,9.8,6.1,16.1,6.1c5.8,0,10.6-1.5,14.4-4.4
			c3.9-2.9,6.3-6.8,7.1-11.7h12.7c-0.9,5-2.8,9.4-5.8,13.3c-3,3.9-6.9,7-11.7,9.1c-4.8,2.2-10.2,3.3-16.2,3.3
			c-6.9,0-13-1.5-18.3-4.4c-5.3-3-9.5-7.2-12.5-12.7c-3-5.5-4.5-12-4.5-19.5c0-7.5,1.5-14,4.5-19.6c3-5.6,7.2-9.8,12.5-12.8
			c5.3-3,11.4-4.4,18.3-4.4c7,0,13,1.5,18.2,4.4c5.2,3,9.1,6.9,11.9,11.9c2.7,5,4.1,10.5,4.1,16.5
			C773.6,522.5,773.4,524.7,773.1,526.5z M759,507.4c-2-3.6-4.8-6.2-8.2-8c-3.5-1.7-7.3-2.6-11.4-2.6c-6.5,0-12,2-16.5,6.1
			c-4.4,4.1-6.8,10-7.2,17.8h45.9C761.9,515.4,761,511,759,507.4z"></path>
	</g>
	<g>
		<path class="st3" d="M736.4,864.5c7.3,5.5,12.4,13.1,15.2,22.7H739c-2.4-6.1-6.1-11-11.4-14.6c-5.2-3.6-11.6-5.4-19.2-5.4
			c-6,0-11.4,1.5-16.1,4.4c-4.7,2.9-8.5,7.1-11.2,12.5c-2.7,5.4-4.1,11.8-4.1,19.1c0,7.2,1.4,13.6,4.1,19c2.7,5.4,6.5,9.6,11.2,12.5
			c4.7,2.9,10.1,4.4,16.1,4.4c7.6,0,14-1.8,19.2-5.4c5.2-3.6,9-8.5,11.4-14.6h12.5c-2.8,9.6-7.8,17.1-15.2,22.7
			c-7.3,5.5-16.6,8.3-27.8,8.3c-8.6,0-16.3-2-22.9-5.9c-6.6-4-11.8-9.5-15.5-16.6c-3.7-7.1-5.6-15.2-5.6-24.2
			c0-9.1,1.9-17.3,5.6-24.4c3.7-7.1,8.9-12.7,15.5-16.7c6.6-4,14.2-5.9,22.9-5.9C719.8,856.2,729.1,859,736.4,864.5z"></path>
		<path class="st3" d="M779.4,852.6v96.7h-11.9v-96.7H779.4z"></path>
		<path class="st3" d="M798.6,851.2c1.5-1.4,3.4-2,5.9-2c2.4,0,4.4,0.7,5.9,2c1.5,1.4,2.2,3.1,2.2,5.3c0,2.2-0.7,3.9-2.2,5.3
			c-1.5,1.4-3.4,2-5.9,2c-2.4,0-4.4-0.7-5.9-2c-1.5-1.3-2.2-3.1-2.2-5.3C796.4,854.3,797.1,852.6,798.6,851.2z M810.4,877.6v71.8
			h-11.9v-71.8H810.4z"></path>
		<path class="st3" d="M887.5,884.4c5.1,5.4,7.7,13.1,7.7,23.2v41.7h-11.9v-40.6c0-7.1-1.8-12.6-5.5-16.5c-3.7-3.8-8.6-5.8-14.9-5.8
			c-6.5,0-11.8,2.1-15.7,6.3c-3.9,4.2-5.9,10.4-5.9,18.5v38h-11.9v-71.8h11.9v17c1.8-5.8,5.1-10.3,9.7-13.5c4.7-3.1,10-4.7,16.1-4.7
			C875.6,876.4,882.3,879.1,887.5,884.4z"></path>
		<path class="st3" d="M913.6,851.2c1.5-1.4,3.4-2,5.9-2c2.4,0,4.4,0.7,5.9,2c1.5,1.4,2.2,3.1,2.2,5.3c0,2.2-0.7,3.9-2.2,5.3
			c-1.5,1.4-3.4,2-5.9,2c-2.4,0-4.4-0.7-5.9-2c-1.5-1.3-2.2-3.1-2.2-5.3C911.4,854.3,912.1,852.6,913.6,851.2z M925.4,877.6v71.8
			h-11.9v-71.8H925.4z"></path>
		<path class="st3" d="M999,884c6,4.9,9.7,11.4,11.1,19.6h-12.5c-0.9-5.1-3.2-9.2-7.1-12.1c-3.9-2.9-8.7-4.4-14.4-4.4
			c-4.2,0-8,1-11.4,2.9c-3.4,1.9-6.2,4.9-8.3,8.8c-2.1,4-3.1,8.9-3.1,14.7c0,5.8,1,10.7,3.1,14.7c2.1,4,4.9,6.9,8.3,8.8
			c3.4,1.9,7.3,2.9,11.4,2.9c5.8,0,10.6-1.5,14.4-4.4c3.9-3,6.3-7,7.1-12.2h12.5c-1.4,8.3-5.1,14.8-11.1,19.7
			c-6,4.8-13.6,7.3-22.7,7.3c-6.9,0-13-1.5-18.3-4.4c-5.3-3-9.5-7.2-12.5-12.7c-3-5.5-4.5-12-4.5-19.5c0-7.5,1.5-14,4.5-19.6
			c3-5.6,7.2-9.8,12.5-12.8c5.3-3,11.4-4.4,18.3-4.4C985.4,876.6,993,879.1,999,884z"></path>
	</g>
	<g>
		<path class="st3" d="M678.2,639.6c12.4,9.4,20.9,22.2,25.7,38.4h-21.2c-4-10.3-10.4-18.6-19.3-24.7c-8.9-6.1-19.7-9.2-32.5-9.2
			c-10.2,0-19.3,2.5-27.3,7.4c-8,4.9-14.4,12-19,21.2c-4.6,9.2-7,20-7,32.4c0,12.2,2.3,22.9,7,32.1c4.6,9.2,11,16.2,19,21.1
			c8,4.9,17.2,7.4,27.3,7.4c12.8,0,23.7-3.1,32.5-9.2c8.9-6.1,15.3-14.3,19.3-24.7h21.2c-4.7,16.2-13.3,29-25.7,38.4
			c-12.4,9.4-28.1,14.1-47.1,14.1c-14.6,0-27.5-3.4-38.7-10.1c-11.2-6.7-20-16.1-26.2-28.1c-6.3-12-9.4-25.7-9.4-41.1
			c0-15.5,3.1-29.3,9.4-41.4c6.3-12.1,15-21.5,26.2-28.2c11.2-6.7,24.1-10.1,38.7-10.1C650,625.5,665.8,630.2,678.2,639.6z"></path>
		<path class="st3" d="M841.4,635.3c11.6,6.8,20.7,16.3,27.3,28.4c6.6,12.2,10,25.9,10,41.3c0,15.3-3.3,29.1-10,41.3
			c-6.6,12.2-15.8,21.7-27.3,28.4c-11.6,6.8-24.6,10.2-39.1,10.2c-14.5,0-27.6-3.4-39.3-10.2c-11.7-6.8-20.9-16.3-27.6-28.4
			c-6.6-12.2-10-25.9-10-41.3c0-15.3,3.3-29.1,10-41.3s15.8-21.7,27.6-28.4c11.7-6.8,24.8-10.2,39.3-10.2
			C816.8,625.1,829.8,628.5,841.4,635.3z M773.4,651.3c-8.5,4.9-15.1,12-19.9,21.2c-4.8,9.2-7.2,20-7.2,32.4c0,12.2,2.4,23,7.2,32.3
			c4.8,9.3,11.4,16.4,19.9,21.4c8.5,4.9,18.1,7.4,28.9,7.4c10.6,0,20.2-2.5,28.7-7.5c8.5-5,15.1-12.1,19.9-21.4
			c4.8-9.2,7.2-20,7.2-32.2c0-12.4-2.4-23.2-7.2-32.4c-4.8-9.2-11.4-16.3-19.9-21.2c-8.5-4.9-18-7.4-28.7-7.4
			C791.5,643.9,781.9,646.4,773.4,651.3z"></path>
		<path class="st3" d="M926,720.3v62.9h-20.1v-156h49.6c17.9,0,31.2,4.2,40.1,12.5c8.9,8.3,13.3,19.7,13.3,34.2
			c0,14.6-4.6,26-13.7,34.2c-9.2,8.2-22.4,12.3-39.6,12.3H926z M980.1,695.7c5.4-5.2,8.1-12.5,8.1-21.9c0-9.7-2.7-17.2-8.1-22.2
			c-5.4-5.1-14.2-7.6-26.4-7.6H926v59.5h27.7C965.9,703.4,974.7,700.9,980.1,695.7z"></path>
	</g>
	<path class="st3" d="M1648,717.3c-17.4-41.2-38.4-80.3-62.8-117.3c-8.2-12.4-16.7-24.5-25.6-36.3c-20.4-27.2-42.9-52.9-67.2-77.3
		c-66.7-66.7-144.4-119.1-230.9-155.7c-89.5-37.9-184.7-57.1-282.7-57.1s-193.2,19.2-282.7,57.1c-86.5,36.6-164.2,89-230.9,155.7
		c-66.7,66.7-119.1,144.4-155.6,230.8c-37.9,89.5-57.1,184.7-57.1,282.7s19.2,193.2,57.1,282.7c20.2,47.9,45.3,93,75,135.1
		c4.1,5.8,8.3,11.6,12.6,17.4c20.7,27.6,43.4,53.7,68,78.4c66.7,66.7,144.4,119.1,230.9,155.6c89.5,37.9,184.7,57.1,282.7,57.1
		s193.2-19.2,282.7-57.1c86.5-36.6,164.2-88.9,230.9-155.6c66.7-66.7,119.1-144.4,155.6-230.9c37.9-89.5,57.1-184.7,57.1-282.7
		S1685.9,806.8,1648,717.3z M978.8,1717.1c-234.4,0-442.9-113-573.8-287.5c-4.8-6.4-9.5-12.9-14.1-19.4
		c-81.4-116.3-129.2-257.8-129.2-410.2c0-395.4,321.7-717.1,717.1-717.1c232.9,0,440.3,111.6,571.3,284.2
		c9.3,12.3,18.2,24.8,26.7,37.7c75.2,113.4,119,249.3,119,395.2C1695.9,1395.4,1374.2,1717.1,978.8,1717.1z"></path>
	<path class="st2" d="M1747.5,521.3c0,0-67.2,24.8-162.3,78.7c-2.7,1.6-5.5,3.1-8.3,4.8c-158.6,91.3-389.2,261.6-517.5,530.6
		c0,0-181.9-42.7-654.4,294.3c-2.6,1.9-5.2,3.7-7.8,5.6c-19.3,13.9-39.1,28.3-59.4,43.5c0,0,16.4-23.8,46.7-60.8
		c2-2.5,4.1-5,6.3-7.7c97.6-117.5,321.7-349.9,604.3-403.3c0,0,218.1-315.8,554.9-439.8c3.1-1.1,6.3-2.3,9.4-3.4
		C1618.8,542.7,1681.6,527.7,1747.5,521.3z"></path>
</g>
</svg><style>@media (prefers-color-scheme: light) { :root { filter: none; } }
</style></svg>